<svg width="58" height="49" viewBox="0 0 58 49" fill="none" xmlns="http://www.w3.org/2000/svg">
<path d="M0.767429 48.8263C0.767429 40.3509 0.826286 34.2297 0.944 30.4629C1.17943 20.3394 2.70971 12.8646 5.53486 8.03828C8.36 3.09428 13.304 0.563421 20.3669 0.445709L23.192 8.39143C19.1897 8.62685 16.4823 10.1571 15.0697 12.9823C13.6571 15.8074 12.9509 20.2217 12.9509 26.2251H23.8983V48.8263H0.767429ZM34.4926 48.8263C34.4926 40.3509 34.5514 34.2297 34.6691 30.4629C34.9046 20.3394 36.4349 12.8646 39.26 8.03828C42.0851 3.09428 47.0291 0.563421 54.092 0.445709L56.9171 8.39143C52.9149 8.62685 50.2074 10.1571 48.7949 12.9823C47.3823 15.8074 46.676 20.2217 46.676 26.2251H57.6234V48.8263H34.4926Z" fill="#FC9D28"/>
</svg>
