<svg width="17" height="20" viewBox="0 0 17 20" fill="none" xmlns="http://www.w3.org/2000/svg">
<path d="M15.7273 8.36364C15.7273 14.0909 8.36364 19 8.36364 19C8.36364 19 1 14.0909 1 8.36364C1 6.41068 1.77581 4.53771 3.15676 3.15676C4.53771 1.77581 6.41068 1 8.36364 1C10.3166 1 12.1896 1.77581 13.5705 3.15676C14.9515 4.53771 15.7273 6.41068 15.7273 8.36364Z" stroke="#002E50" stroke-linecap="round" stroke-linejoin="round"/>
<path d="M8.36348 10.8183C9.71909 10.8183 10.818 9.71933 10.818 8.36372C10.818 7.00812 9.71909 5.90918 8.36348 5.90918C7.00787 5.90918 5.90894 7.00812 5.90894 8.36372C5.90894 9.71933 7.00787 10.8183 8.36348 10.8183Z" stroke="#002E50" stroke-linecap="round" stroke-linejoin="round"/>
</svg>
