<svg width="16" height="14" viewBox="0 0 16 14" fill="none" xmlns="http://www.w3.org/2000/svg">
<path d="M11.2975 0C12.475 0.0132617 13.5957 0.511728 14.3987 1.37934C15.2016 2.24696 15.6167 3.40799 15.5483 4.55698L15.5472 9.40796C15.6167 10.592 15.2016 11.753 14.3987 12.6207C13.5957 13.4883 12.475 13.9867 11.2909 14H4.2437C1.7785 14 0 12.0077 0 9.44302V4.55698C0 1.99229 1.7785 0 4.2437 0H11.2975ZM11.2843 1.18874H4.2437C2.45995 1.18874 1.18023 2.62232 1.18023 4.55698V9.44302C1.18023 11.3777 2.45995 12.8113 4.2437 12.8113H11.2843C12.139 12.8017 12.9525 12.4398 13.5354 11.8101C14.1182 11.1803 14.4195 10.3375 14.368 9.44302L14.3691 4.52191C14.4195 3.66245 14.1182 2.8197 13.5354 2.18993C12.9525 1.56016 12.139 1.19834 11.2843 1.18874ZM12.4631 4.3854C12.6483 4.61838 12.6311 4.9487 12.4353 5.16095L12.3712 5.22087L9.17687 7.79615C8.40105 8.40523 7.32907 8.43569 6.52014 7.88475L6.39468 7.79293L3.17898 5.22242C2.9237 5.01835 2.88098 4.64447 3.08359 4.38733C3.26777 4.15357 3.59128 4.09677 3.84038 4.24169L3.91266 4.29124L7.1243 6.85854C7.48439 7.14123 7.97803 7.16298 8.35395 6.92752L8.44534 6.8633L11.6337 4.29279C11.8881 4.08765 12.2595 4.12911 12.4631 4.3854Z" fill="#002E50"/>
</svg>
