<svg width="17" height="17" viewBox="0 0 17 17" fill="none" xmlns="http://www.w3.org/2000/svg">
<path d="M15.8982 12.1766V14.4239C15.899 14.6326 15.8563 14.8391 15.7727 15.0302C15.6891 15.2214 15.5666 15.393 15.4128 15.534C15.2591 15.675 15.0776 15.7824 14.88 15.8493C14.6823 15.9161 14.4729 15.9409 14.2651 15.9221C11.96 15.6717 9.74582 14.884 7.80041 13.6224C5.99046 12.4723 4.45594 10.9378 3.30582 9.1278C2.03982 7.17355 1.25197 4.94857 1.00608 2.63311C0.987361 2.42596 1.01198 2.21718 1.07837 2.02006C1.14476 1.82295 1.25146 1.64182 1.39169 1.4882C1.53192 1.33459 1.7026 1.21185 1.89286 1.12781C2.08312 1.04377 2.28879 1.00027 2.49679 1.00007H4.74409C5.10763 0.996495 5.46007 1.12523 5.73572 1.36229C6.01136 1.59934 6.1914 1.92854 6.24229 2.28852C6.33714 3.00771 6.51305 3.71386 6.76666 4.39349C6.86744 4.66161 6.88925 4.95301 6.82951 5.23314C6.76976 5.51328 6.63097 5.77042 6.42956 5.97409L5.4782 6.92545C6.54459 8.80085 8.0974 10.3537 9.9728 11.42L10.9242 10.4687C11.1278 10.2673 11.385 10.1285 11.6651 10.0687C11.9452 10.009 12.2366 10.0308 12.5048 10.1316C13.1844 10.3852 13.8905 10.5611 14.6097 10.656C14.9736 10.7073 15.3059 10.8906 15.5435 11.171C15.7811 11.4513 15.9073 11.8093 15.8982 12.1766Z" stroke="#002E50" stroke-linecap="round" stroke-linejoin="round" fill="none"/>
</svg>
